Coordinates
version=1
nRows=12
nColumns=34
inDegrees=yes

Units are S.I. units (second, meters, Newtons, ...)
If the header above contains a line with 'inDegrees', this indicates whether rotational values are in degrees (yes) or radians (no).

endheader
time	pelvis_tilt	pelvis_list	pelvis_rotation	pelvis_tx	pelvis_ty	pelvis_tz	hip_flexion_r	hip_adduction_r	hip_rotation_r	knee_angle_r	ankle_angle_r	subtalar_angle_r	mtp_angle_r	hip_flexion_l	hip_adduction_l	hip_rotation_l	knee_angle_l	ankle_angle_l	subtalar_angle_l	mtp_angle_l	lumbar_extension	lumbar_bending	lumbar_rotation	arm_flex_r	arm_add_r	arm_rot_r	elbow_flex_r	pro_sup_r	arm_flex_l	arm_add_l	arm_rot_l	elbow_flex_l	pro_sup_l
     10.28333330	    -22.79639824	      1.37034702	      6.25086844	     -0.03579617	      0.61679902	      0.07544829	     90.01199864	     15.97196173	      0.80343175	    103.16408322	     31.17428655	    -33.39366485	      0.00000000	    100.02593663	     -5.37804819	      0.55099431	     39.96654755	    -10.62415901	    -16.94883944	      0.00000000	    -31.87522549	     -1.86192075	      2.19356753	    119.86448334	     -2.85159631	     79.40445992	    120.73389528	     73.86063685	    113.35685878	     -4.57260682	     85.68080050	    109.88456652	     71.93435797
     10.30000000	    -22.89822341	      1.36772748	      6.44355284	     -0.03921913	      0.60792219	      0.07282267	     91.19696270	     15.87925253	      0.71808073	    104.22064530	     31.20430032	    -33.61314445	      0.00000000	    100.81876274	     -5.20682205	      0.36821595	     40.23072581	    -11.02293877	    -17.17059776	      0.00000000	    -32.61368390	     -1.86836024	      2.03970606	    120.93970933	     -2.88345209	     79.36678937	    120.53100966	     73.59188074	    114.36689687	     -4.29305362	     85.23472424	    109.11821884	     71.67336997
     10.31666670	    -23.06224543	      1.31422360	      6.70038312	     -0.03866443	      0.59933404	      0.07471907	     92.58454649	     15.81570380	      0.52684065	    105.39306310	     31.53370227	    -33.86319643	      0.00000000	    101.70686800	     -5.10509572	      0.23328321	     40.71729360	    -11.05334352	    -17.40582314	      0.00000000	    -33.16805513	     -1.82216243	      1.96373509	    121.80300629	     -3.11342987	     79.18898182	    120.26660876	     73.44973892	    115.12289758	     -4.14479301	     84.88682123	    108.83927395	     71.54433199
     10.33333330	    -23.23822341	      1.45306571	      6.80470034	     -0.04060250	      0.59255496	      0.07614718	     93.87664729	     15.85412201	      0.39323742	    106.68583101	     31.69227589	    -34.19055381	      0.00000000	    102.49848581	     -5.09111724	      0.12003318	     40.93658605	    -11.14243983	    -17.83830260	      0.00000000	    -33.77025671	     -1.90310128	      2.29597279	    122.75418604	     -3.14935145	     79.07531019	    120.07551469	     73.26563290	    115.82321080	     -3.78448093	     84.67950691	    108.83281374	     71.40074615
     10.35000000	    -23.27178546	      1.47784283	      6.55442923	     -0.04013189	      0.58416221	      0.07604647	     95.08898900	     16.25917238	      0.13382266	    107.91988572	     31.56142371	    -34.22610154	      0.00000000	    103.27665819	     -5.42167423	      0.21335966	     41.02607653	    -11.48080146	    -18.23431256	      0.00000000	    -34.39488635	     -2.06434194	      2.80554359	    123.74229481	     -3.20110165	     79.03469984	    120.41686165	     72.88219327	    116.73957292	     -3.53962836	     84.58513248	    108.79087392	     71.10939789
     10.36666670	    -22.93693050	      1.59857952	      6.40000104	     -0.04272700	      0.57682682	      0.07605028	     96.01454058	     16.36768885	     -0.14969477	    109.29941071	     31.37829389	    -34.36123793	      0.00000000	    103.53472072	     -5.74728414	      0.03362990	     40.85836469	    -11.55277263	    -18.34932767	      0.00000000	    -35.43908616	     -2.16496426	      3.55615470	    125.02372780	     -3.64711608	     79.22645940	    120.56660435	     72.02241841	    117.86859693	     -3.34303614	     84.77938577	    108.74927039	     70.53813445
     10.38333330	    -22.78919121	      1.83368355	      6.43076607	     -0.04923003	      0.56704336	      0.07886684	     97.15904965	     16.30778254	     -0.40577414	    110.57716431	     30.93771734	    -34.51445558	      0.00000000	    103.89569224	     -5.97178771	     -0.20685831	     40.45185314	    -11.87347023	    -18.30582496	      0.00000000	    -36.47251599	     -2.42260787	      3.89849155	    126.86805981	     -3.81883525	     78.77501327	    120.52395787	     66.99123348	    119.56245486	     -3.29269316	     84.99985416	    108.35777753	     67.41246517
     10.40000000	    -22.89835948	      1.88182891	      6.22190342	     -0.04889688	      0.56015853	      0.08111014	     98.17181349	     16.51204809	     -0.76852480	    111.35035618	     31.12581749	    -34.10328073	      0.00000000	    104.44997075	     -6.58804454	     -0.39693020	     39.96853979	    -12.47911717	    -17.96315397	      0.00000000	    -36.90533355	     -2.69007877	      4.48372973	    127.38770465	     -3.80767718	     78.37914899	    119.81839188	     66.84413662	    120.70624153	     -3.39735104	     84.77502034	    108.02943508	     67.31073717
     10.41666670	    -22.79447652	      1.98576594	      6.26952975	     -0.04721909	      0.55071923	      0.08226972	     99.03941962	     16.46220393	     -1.34676706	    112.38382995	     32.02303360	    -33.33560574	      0.00000000	    104.87149222	     -7.04533414	     -0.50253495	     39.70837050	    -12.72885338	    -17.94551524	      0.00000000	    -37.52218193	     -2.76680698	      4.74251237	    127.93176779	     -3.78333952	     77.47626685	    119.11428168	     66.29060887	    122.54714136	     -3.83040859	     85.43634230	    108.11909828	     66.97109239
     10.43333330	    -23.12040617	      1.90227875	      6.56369825	     -0.04181014	      0.54088583	      0.08543912	    100.23852043	     16.40878578	     -2.09700810	    113.58377770	     32.41714673	    -33.49747718	      0.00000000	    105.87873809	     -7.39460056	     -0.51861905	     39.57666501	    -13.05708061	    -18.04453432	      0.00000000	    -37.29386537	     -2.74799212	      4.90906457	    127.46915048	     -3.64579553	     76.65121187	    119.03691629	     65.87676853	    123.43549592	     -4.21329737	     86.12564050	    108.63117010	     66.66980435
     10.45000000	    -23.01359486	      1.95595898	      6.90634355	     -0.04782130	      0.53204042	      0.08628093	    101.19986115	     16.23808748	     -2.58518200	    114.79843548	     32.54240184	    -33.67159739	      0.00000000	    106.19886962	     -7.53174644	     -0.72583951	     38.83721750	    -13.68220464	    -18.09540653	      0.00000000	    -37.67986449	     -2.75540561	      5.12672051	    127.52456509	     -3.52521841	     75.68485221	    118.56411672	     65.44028924	    125.06726089	     -4.39153194	     87.09134989	    108.48817181	     66.35994814
     10.46666670	    -22.99316188	      2.06319716	      7.20531284	     -0.04725594	      0.52395805	      0.08521865	    102.21528642	     16.06438681	     -2.76479712	    115.99580843	     32.66376738	    -33.89336198	      0.00000000	    106.42435897	     -7.65418937	     -1.19384782	     37.97145758	    -14.40417496	    -18.39621601	      0.00000000	    -37.92513382	     -2.74763330	      5.20733787	    127.33360350	     -3.46013819	     74.92770602	    118.62534763	     65.15070095	    126.26582852	     -4.51264855	     87.60820363	    108.68758546	     66.09969213
